<svg xmlns="http://www.w3.org/2000/svg" xmlns:xlink="http://www.w3.org/1999/xlink" width="1920" zoomAndPan="magnify" viewBox="0 0 1440 809.999993" height="1080" preserveAspectRatio="xMidYMid meet" version="1.0"><defs><g/><clipPath id="id1"><path d="M 42 243 L 365 243 L 365 567 L 42 567 Z M 42 243 " clip-rule="nonzero"/></clipPath><clipPath id="id2"><path d="M -3.628906 500.378906 L 108.152344 197.871094 L 410.660156 309.65625 L 298.875 612.160156 Z M -3.628906 500.378906 " clip-rule="nonzero"/></clipPath><clipPath id="id3"><path d="M -3.628906 500.378906 L 108.152344 197.871094 L 410.660156 309.65625 L 298.875 612.160156 Z M -3.628906 500.378906 " clip-rule="nonzero"/></clipPath><clipPath id="id4"><path d="M 259.40625 253.761719 C 261.882812 254.675781 264.335938 255.652344 266.761719 256.6875 C 269.1875 257.722656 271.589844 258.816406 273.964844 259.96875 C 276.335938 261.121094 278.683594 262.332031 280.996094 263.601562 C 283.308594 264.867188 285.59375 266.191406 287.839844 267.574219 C 290.089844 268.953125 292.304688 270.386719 294.484375 271.875 C 296.664062 273.363281 298.804688 274.90625 300.90625 276.5 C 303.011719 278.09375 305.074219 279.738281 307.097656 281.433594 C 309.117188 283.128906 311.097656 284.871094 313.035156 286.664062 C 314.972656 288.457031 316.863281 290.296875 318.710938 292.183594 C 320.558594 294.066406 322.355469 295.996094 324.109375 297.96875 C 325.859375 299.945312 327.5625 301.957031 329.214844 304.015625 C 330.867188 306.074219 332.46875 308.167969 334.019531 310.304688 C 335.570312 312.441406 337.066406 314.613281 338.511719 316.824219 C 339.953125 319.03125 341.339844 321.277344 342.675781 323.554688 C 344.007812 325.832031 345.285156 328.140625 346.503906 330.480469 C 347.722656 332.820312 348.886719 335.1875 349.988281 337.585938 C 351.09375 339.984375 352.136719 342.40625 353.121094 344.855469 C 354.105469 347.300781 355.03125 349.773438 355.894531 352.265625 C 356.757812 354.761719 357.558594 357.273438 358.296875 359.808594 C 359.039062 362.339844 359.714844 364.890625 360.328125 367.457031 C 360.945312 370.023438 361.496094 372.601562 361.984375 375.195312 C 362.472656 377.789062 362.894531 380.394531 363.257812 383.007812 C 363.617188 385.621094 363.914062 388.246094 364.144531 390.875 C 364.375 393.5 364.542969 396.136719 364.644531 398.773438 C 364.746094 401.410156 364.785156 404.046875 364.757812 406.683594 C 364.730469 409.324219 364.636719 411.960938 364.480469 414.59375 C 364.324219 417.230469 364.101562 419.859375 363.816406 422.480469 C 363.53125 425.105469 363.179688 427.71875 362.765625 430.328125 C 362.351562 432.933594 361.875 435.527344 361.332031 438.109375 C 360.789062 440.691406 360.1875 443.261719 359.519531 445.8125 C 358.851562 448.367188 358.121094 450.902344 357.328125 453.417969 C 356.535156 455.9375 355.683594 458.433594 354.769531 460.910156 C 353.855469 463.382812 352.878906 465.835938 351.84375 468.261719 C 350.808594 470.691406 349.714844 473.089844 348.5625 475.464844 C 347.410156 477.839844 346.199219 480.183594 344.929688 482.496094 C 343.664062 484.8125 342.339844 487.09375 340.957031 489.34375 C 339.578125 491.59375 338.144531 493.804688 336.65625 495.984375 C 335.167969 498.164062 333.625 500.304688 332.03125 502.410156 C 330.4375 504.511719 328.792969 506.574219 327.097656 508.597656 C 325.402344 510.621094 323.660156 512.597656 321.867188 514.535156 C 320.074219 516.472656 318.234375 518.363281 316.347656 520.210938 C 314.464844 522.058594 312.535156 523.855469 310.5625 525.609375 C 308.585938 527.359375 306.570312 529.0625 304.515625 530.714844 C 302.457031 532.371094 300.363281 533.972656 298.226562 535.519531 C 296.089844 537.070312 293.917969 538.566406 291.707031 540.011719 C 289.5 541.453125 287.253906 542.84375 284.976562 544.175781 C 282.699219 545.507812 280.390625 546.785156 278.050781 548.003906 C 275.710938 549.226562 273.34375 550.386719 270.945312 551.492188 C 268.546875 552.59375 266.125 553.636719 263.675781 554.621094 C 261.230469 555.605469 258.757812 556.53125 256.265625 557.394531 C 253.769531 558.257812 251.257812 559.058594 248.722656 559.800781 C 246.191406 560.539062 243.640625 561.214844 241.074219 561.832031 C 238.507812 562.445312 235.929688 562.996094 233.335938 563.484375 C 230.742188 563.972656 228.136719 564.398438 225.523438 564.757812 C 222.910156 565.117188 220.285156 565.414062 217.65625 565.644531 C 215.027344 565.875 212.394531 566.042969 209.757812 566.144531 C 207.121094 566.246094 204.484375 566.285156 201.84375 566.257812 C 199.207031 566.230469 196.570312 566.136719 193.9375 565.980469 C 191.300781 565.824219 188.671875 565.601562 186.050781 565.316406 C 183.425781 565.03125 180.8125 564.679688 178.203125 564.265625 C 175.597656 563.851562 173.003906 563.375 170.421875 562.832031 C 167.839844 562.292969 165.269531 561.6875 162.71875 561.019531 C 160.164062 560.351562 157.628906 559.621094 155.113281 558.828125 C 152.59375 558.039062 150.097656 557.183594 147.621094 556.269531 C 145.148438 555.355469 142.695312 554.378906 140.269531 553.34375 C 137.839844 552.308594 135.441406 551.214844 133.066406 550.0625 C 130.691406 548.910156 128.347656 547.699219 126.035156 546.429688 C 123.71875 545.164062 121.4375 543.839844 119.1875 542.460938 C 116.9375 541.078125 114.726562 539.644531 112.546875 538.15625 C 110.367188 536.667969 108.226562 535.125 106.121094 533.53125 C 104.019531 531.9375 101.957031 530.292969 99.933594 528.597656 C 97.910156 526.902344 95.933594 525.160156 93.996094 523.367188 C 92.058594 521.574219 90.167969 519.734375 88.320312 517.851562 C 86.472656 515.964844 84.675781 514.035156 82.921875 512.0625 C 81.171875 510.089844 79.46875 508.074219 77.816406 506.015625 C 76.160156 503.957031 74.558594 501.863281 73.011719 499.726562 C 71.460938 497.589844 69.964844 495.417969 68.519531 493.207031 C 67.078125 491 65.6875 488.757812 64.355469 486.480469 C 63.023438 484.203125 61.746094 481.890625 60.527344 479.550781 C 59.304688 477.210938 58.144531 474.84375 57.039062 472.445312 C 55.9375 470.050781 54.894531 467.625 53.910156 465.179688 C 52.925781 462.730469 52 460.257812 51.136719 457.765625 C 50.273438 455.269531 49.472656 452.757812 48.730469 450.222656 C 47.992188 447.691406 47.316406 445.140625 46.699219 442.574219 C 46.085938 440.007812 45.535156 437.429688 45.046875 434.835938 C 44.558594 432.242188 44.132812 429.636719 43.773438 427.023438 C 43.414062 424.410156 43.117188 421.789062 42.886719 419.160156 C 42.65625 416.53125 42.488281 413.898438 42.386719 411.261719 C 42.285156 408.625 42.246094 405.984375 42.273438 403.347656 C 42.300781 400.707031 42.394531 398.070312 42.550781 395.4375 C 42.707031 392.800781 42.929688 390.171875 43.214844 387.550781 C 43.5 384.925781 43.851562 382.3125 44.265625 379.707031 C 44.679688 377.097656 45.15625 374.503906 45.699219 371.921875 C 46.238281 369.339844 46.84375 366.769531 47.511719 364.21875 C 48.179688 361.664062 48.910156 359.128906 49.703125 356.613281 C 50.492188 354.09375 51.347656 351.597656 52.261719 349.125 C 53.175781 346.648438 54.152344 344.195312 55.1875 341.769531 C 56.222656 339.339844 57.316406 336.941406 58.46875 334.566406 C 59.621094 332.195312 60.832031 329.847656 62.101562 327.535156 C 63.367188 325.21875 64.691406 322.9375 66.070312 320.691406 C 67.453125 318.441406 68.886719 316.226562 70.375 314.046875 C 71.863281 311.867188 73.40625 309.726562 75 307.625 C 76.59375 305.519531 78.238281 303.457031 79.933594 301.433594 C 81.628906 299.414062 83.371094 297.433594 85.164062 295.496094 C 86.957031 293.558594 88.796875 291.667969 90.679688 289.820312 C 92.566406 287.972656 94.496094 286.175781 96.46875 284.421875 C 98.441406 282.671875 100.457031 280.96875 102.515625 279.316406 C 104.574219 277.664062 106.667969 276.0625 108.804688 274.511719 C 110.941406 272.960938 113.113281 271.464844 115.324219 270.019531 C 117.53125 268.578125 119.773438 267.191406 122.050781 265.855469 C 124.328125 264.523438 126.640625 263.246094 128.980469 262.027344 C 131.320312 260.808594 133.6875 259.644531 136.085938 258.542969 C 138.480469 257.4375 140.90625 256.394531 143.351562 255.410156 C 145.800781 254.425781 148.273438 253.5 150.765625 252.636719 C 153.261719 251.773438 155.773438 250.972656 158.308594 250.234375 C 160.839844 249.492188 163.390625 248.816406 165.957031 248.203125 C 168.523438 247.585938 171.101562 247.035156 173.695312 246.546875 C 176.289062 246.058594 178.894531 245.636719 181.507812 245.273438 C 184.121094 244.914062 186.742188 244.617188 189.371094 244.386719 C 192 244.15625 194.632812 243.988281 197.269531 243.886719 C 199.90625 243.785156 202.546875 243.746094 205.183594 243.773438 C 207.824219 243.800781 210.460938 243.894531 213.09375 244.050781 C 215.730469 244.207031 218.359375 244.429688 220.980469 244.714844 C 223.605469 245 226.21875 245.351562 228.824219 245.765625 C 231.433594 246.179688 234.027344 246.65625 236.609375 247.199219 C 239.191406 247.738281 241.761719 248.34375 244.3125 249.011719 C 246.867188 249.679688 249.402344 250.410156 251.917969 251.203125 C 254.4375 251.996094 256.933594 252.847656 259.40625 253.761719 Z M 259.40625 253.761719 " clip-rule="nonzero"/></clipPath><linearGradient x1="1752.6577" gradientTransform="matrix(2.357808, 0.871278, -0.871278, 2.357808, -3909.92406, -1771.116085)" y1="244.834" x2="1917.49423" gradientUnits="userSpaceOnUse" y2="244.834" id="id5"><stop stop-opacity="1" stop-color="rgb(58.799744%, 97.999573%, 92.199707%)" offset="0"/><stop stop-opacity="1" stop-color="rgb(58.799744%, 97.999573%, 92.199707%)" offset="0.0625"/><stop stop-opacity="1" stop-color="rgb(58.799744%, 97.999573%, 92.199707%)" offset="0.09375"/><stop stop-opacity="1" stop-color="rgb(58.799744%, 97.999573%, 92.199707%)" offset="0.109375"/><stop stop-opacity="1" stop-color="rgb(58.776855%, 97.86377%, 92.21344%)" offset="0.117188"/><stop stop-opacity="1" stop-color="rgb(58.726501%, 97.56012%, 92.247009%)" offset="0.125"/><stop stop-opacity="1" stop-color="rgb(58.67157%, 97.227478%, 92.28363%)" offset="0.132812"/><stop stop-opacity="1" stop-color="rgb(58.615112%, 96.893311%, 92.320251%)" offset="0.140625"/><stop stop-opacity="1" stop-color="rgb(58.560181%, 96.560669%, 92.355347%)" offset="0.148438"/><stop stop-opacity="1" stop-color="rgb(58.505249%, 96.226501%, 92.391968%)" offset="0.15625"/><stop stop-opacity="1" stop-color="rgb(58.450317%, 95.892334%, 92.428589%)" offset="0.164062"/><stop stop-opacity="1" stop-color="rgb(58.39386%, 95.559692%, 92.46521%)" offset="0.171875"/><stop stop-opacity="1" stop-color="rgb(58.338928%, 95.225525%, 92.501831%)" offset="0.179688"/><stop stop-opacity="1" stop-color="rgb(58.283997%, 94.892883%, 92.538452%)" offset="0.1875"/><stop stop-opacity="1" stop-color="rgb(58.229065%, 94.558716%, 92.573547%)" offset="0.195312"/><stop stop-opacity="1" stop-color="rgb(58.172607%, 94.224548%, 92.610168%)" offset="0.203125"/><stop stop-opacity="1" stop-color="rgb(58.117676%, 93.891907%, 92.64679%)" offset="0.210938"/><stop stop-opacity="1" stop-color="rgb(58.062744%, 93.557739%, 92.683411%)" offset="0.21875"/><stop stop-opacity="1" stop-color="rgb(58.007812%, 93.225098%, 92.720032%)" offset="0.226563"/><stop stop-opacity="1" stop-color="rgb(57.951355%, 92.89093%, 92.755127%)" offset="0.234375"/><stop stop-opacity="1" stop-color="rgb(57.896423%, 92.558289%, 92.791748%)" offset="0.242188"/><stop stop-opacity="1" stop-color="rgb(57.841492%, 92.224121%, 92.828369%)" offset="0.25"/><stop stop-opacity="1" stop-color="rgb(57.78656%, 91.889954%, 92.86499%)" offset="0.257812"/><stop stop-opacity="1" stop-color="rgb(57.730103%, 91.557312%, 92.901611%)" offset="0.265625"/><stop stop-opacity="1" stop-color="rgb(57.675171%, 91.223145%, 92.938232%)" offset="0.273438"/><stop stop-opacity="1" stop-color="rgb(57.620239%, 90.890503%, 92.973328%)" offset="0.28125"/><stop stop-opacity="1" stop-color="rgb(57.563782%, 90.556335%, 93.009949%)" offset="0.289063"/><stop stop-opacity="1" stop-color="rgb(57.50885%, 90.223694%, 93.04657%)" offset="0.296875"/><stop stop-opacity="1" stop-color="rgb(57.453918%, 89.889526%, 93.083191%)" offset="0.304688"/><stop stop-opacity="1" stop-color="rgb(57.398987%, 89.555359%, 93.119812%)" offset="0.3125"/><stop stop-opacity="1" stop-color="rgb(57.342529%, 89.222717%, 93.156433%)" offset="0.320312"/><stop stop-opacity="1" stop-color="rgb(57.287598%, 88.88855%, 93.191528%)" offset="0.328125"/><stop stop-opacity="1" stop-color="rgb(57.232666%, 88.555908%, 93.228149%)" offset="0.335938"/><stop stop-opacity="1" stop-color="rgb(57.177734%, 88.221741%, 93.264771%)" offset="0.34375"/><stop stop-opacity="1" stop-color="rgb(57.121277%, 87.887573%, 93.301392%)" offset="0.351562"/><stop stop-opacity="1" stop-color="rgb(57.066345%, 87.554932%, 93.338013%)" offset="0.359375"/><stop stop-opacity="1" stop-color="rgb(57.011414%, 87.220764%, 93.374634%)" offset="0.367188"/><stop stop-opacity="1" stop-color="rgb(56.956482%, 86.888123%, 93.409729%)" offset="0.375"/><stop stop-opacity="1" stop-color="rgb(56.900024%, 86.553955%, 93.44635%)" offset="0.382812"/><stop stop-opacity="1" stop-color="rgb(56.845093%, 86.221313%, 93.482971%)" offset="0.390625"/><stop stop-opacity="1" stop-color="rgb(56.790161%, 85.887146%, 93.519592%)" offset="0.398438"/><stop stop-opacity="1" stop-color="rgb(56.735229%, 85.552979%, 93.556213%)" offset="0.40625"/><stop stop-opacity="1" stop-color="rgb(56.678772%, 85.220337%, 93.591309%)" offset="0.414062"/><stop stop-opacity="1" stop-color="rgb(56.62384%, 84.886169%, 93.62793%)" offset="0.421875"/><stop stop-opacity="1" stop-color="rgb(56.568909%, 84.553528%, 93.664551%)" offset="0.429688"/><stop stop-opacity="1" stop-color="rgb(56.513977%, 84.21936%, 93.701172%)" offset="0.4375"/><stop stop-opacity="1" stop-color="rgb(56.45752%, 83.886719%, 93.737793%)" offset="0.445313"/><stop stop-opacity="1" stop-color="rgb(56.402588%, 83.552551%, 93.774414%)" offset="0.453125"/><stop stop-opacity="1" stop-color="rgb(56.347656%, 83.218384%, 93.809509%)" offset="0.460938"/><stop stop-opacity="1" stop-color="rgb(56.292725%, 82.885742%, 93.84613%)" offset="0.46875"/><stop stop-opacity="1" stop-color="rgb(56.236267%, 82.551575%, 93.882751%)" offset="0.476562"/><stop stop-opacity="1" stop-color="rgb(56.181335%, 82.218933%, 93.919373%)" offset="0.484375"/><stop stop-opacity="1" stop-color="rgb(56.126404%, 81.884766%, 93.955994%)" offset="0.492188"/><stop stop-opacity="1" stop-color="rgb(56.071472%, 81.552124%, 93.992615%)" offset="0.5"/><stop stop-opacity="1" stop-color="rgb(56.015015%, 81.217957%, 94.02771%)" offset="0.507813"/><stop stop-opacity="1" stop-color="rgb(55.960083%, 80.883789%, 94.064331%)" offset="0.515625"/><stop stop-opacity="1" stop-color="rgb(55.905151%, 80.551147%, 94.100952%)" offset="0.523438"/><stop stop-opacity="1" stop-color="rgb(55.85022%, 80.21698%, 94.137573%)" offset="0.53125"/><stop stop-opacity="1" stop-color="rgb(55.793762%, 79.884338%, 94.174194%)" offset="0.539062"/><stop stop-opacity="1" stop-color="rgb(55.738831%, 79.550171%, 94.210815%)" offset="0.546875"/><stop stop-opacity="1" stop-color="rgb(55.683899%, 79.216003%, 94.245911%)" offset="0.554688"/><stop stop-opacity="1" stop-color="rgb(55.628967%, 78.883362%, 94.282532%)" offset="0.5625"/><stop stop-opacity="1" stop-color="rgb(55.57251%, 78.549194%, 94.319153%)" offset="0.570312"/><stop stop-opacity="1" stop-color="rgb(55.517578%, 78.216553%, 94.355774%)" offset="0.578125"/><stop stop-opacity="1" stop-color="rgb(55.462646%, 77.882385%, 94.392395%)" offset="0.585937"/><stop stop-opacity="1" stop-color="rgb(55.406189%, 77.549744%, 94.42749%)" offset="0.59375"/><stop stop-opacity="1" stop-color="rgb(55.351257%, 77.215576%, 94.464111%)" offset="0.601562"/><stop stop-opacity="1" stop-color="rgb(55.14679%, 76.89209%, 94.532776%)" offset="0.609375"/><stop stop-opacity="1" stop-color="rgb(54.672241%, 76.585388%, 94.66095%)" offset="0.613281"/><stop stop-opacity="1" stop-color="rgb(54.374695%, 76.437378%, 94.73877%)" offset="0.617188"/><stop stop-opacity="1" stop-color="rgb(54.077148%, 76.287842%, 94.815063%)" offset="0.621094"/><stop stop-opacity="1" stop-color="rgb(53.779602%, 76.139832%, 94.892883%)" offset="0.625"/><stop stop-opacity="1" stop-color="rgb(53.48053%, 75.990295%, 94.970703%)" offset="0.628906"/><stop stop-opacity="1" stop-color="rgb(53.182983%, 75.840759%, 95.048523%)" offset="0.632812"/><stop stop-opacity="1" stop-color="rgb(52.883911%, 75.691223%, 95.124817%)" offset="0.636719"/><stop stop-opacity="1" stop-color="rgb(52.586365%, 75.543213%, 95.202637%)" offset="0.640625"/><stop stop-opacity="1" stop-color="rgb(52.288818%, 75.393677%, 95.278931%)" offset="0.644531"/><stop stop-opacity="1" stop-color="rgb(51.991272%, 75.245667%, 95.35675%)" offset="0.648437"/><stop stop-opacity="1" stop-color="rgb(51.6922%, 75.09613%, 95.43457%)" offset="0.652344"/><stop stop-opacity="1" stop-color="rgb(51.394653%, 74.946594%, 95.51239%)" offset="0.65625"/><stop stop-opacity="1" stop-color="rgb(51.097107%, 74.797058%, 95.588684%)" offset="0.660156"/><stop stop-opacity="1" stop-color="rgb(50.799561%, 74.649048%, 95.666504%)" offset="0.664062"/><stop stop-opacity="1" stop-color="rgb(50.500488%, 74.499512%, 95.744324%)" offset="0.667969"/><stop stop-opacity="1" stop-color="rgb(50.202942%, 74.351501%, 95.822144%)" offset="0.671875"/><stop stop-opacity="1" stop-color="rgb(49.90387%, 74.201965%, 95.898438%)" offset="0.675781"/><stop stop-opacity="1" stop-color="rgb(49.606323%, 74.052429%, 95.976257%)" offset="0.679688"/><stop stop-opacity="1" stop-color="rgb(49.308777%, 73.902893%, 96.052551%)" offset="0.683594"/><stop stop-opacity="1" stop-color="rgb(49.01123%, 73.754883%, 96.130371%)" offset="0.6875"/><stop stop-opacity="1" stop-color="rgb(48.712158%, 73.605347%, 96.208191%)" offset="0.691406"/><stop stop-opacity="1" stop-color="rgb(48.414612%, 73.457336%, 96.286011%)" offset="0.695312"/><stop stop-opacity="1" stop-color="rgb(48.11554%, 73.3078%, 96.362305%)" offset="0.699219"/><stop stop-opacity="1" stop-color="rgb(47.817993%, 73.158264%, 96.440125%)" offset="0.703125"/><stop stop-opacity="1" stop-color="rgb(47.520447%, 73.008728%, 96.516418%)" offset="0.707031"/><stop stop-opacity="1" stop-color="rgb(47.2229%, 72.860718%, 96.594238%)" offset="0.710937"/><stop stop-opacity="1" stop-color="rgb(46.923828%, 72.711182%, 96.672058%)" offset="0.714844"/><stop stop-opacity="1" stop-color="rgb(46.626282%, 72.563171%, 96.749878%)" offset="0.71875"/><stop stop-opacity="1" stop-color="rgb(46.328735%, 72.413635%, 96.826172%)" offset="0.722656"/><stop stop-opacity="1" stop-color="rgb(46.031189%, 72.265625%, 96.903992%)" offset="0.726562"/><stop stop-opacity="1" stop-color="rgb(45.732117%, 72.116089%, 96.980286%)" offset="0.730469"/><stop stop-opacity="1" stop-color="rgb(45.43457%, 71.966553%, 97.058105%)" offset="0.734375"/><stop stop-opacity="1" stop-color="rgb(45.135498%, 71.817017%, 97.135925%)" offset="0.738281"/><stop stop-opacity="1" stop-color="rgb(44.837952%, 71.669006%, 97.213745%)" offset="0.742188"/><stop stop-opacity="1" stop-color="rgb(44.540405%, 71.51947%, 97.290039%)" offset="0.746094"/><stop stop-opacity="1" stop-color="rgb(44.242859%, 71.37146%, 97.367859%)" offset="0.75"/><stop stop-opacity="1" stop-color="rgb(43.943787%, 71.221924%, 97.444153%)" offset="0.753906"/><stop stop-opacity="1" stop-color="rgb(43.64624%, 71.072388%, 97.521973%)" offset="0.757812"/><stop stop-opacity="1" stop-color="rgb(43.347168%, 70.922852%, 97.599792%)" offset="0.761719"/><stop stop-opacity="1" stop-color="rgb(43.049622%, 70.774841%, 97.677612%)" offset="0.765625"/><stop stop-opacity="1" stop-color="rgb(42.752075%, 70.625305%, 97.753906%)" offset="0.769531"/><stop stop-opacity="1" stop-color="rgb(42.454529%, 70.477295%, 97.831726%)" offset="0.773437"/><stop stop-opacity="1" stop-color="rgb(42.155457%, 70.327759%, 97.90802%)" offset="0.777344"/><stop stop-opacity="1" stop-color="rgb(41.85791%, 70.178223%, 97.98584%)" offset="0.78125"/><stop stop-opacity="1" stop-color="rgb(41.560364%, 70.028687%, 98.06366%)" offset="0.785156"/><stop stop-opacity="1" stop-color="rgb(41.262817%, 69.880676%, 98.141479%)" offset="0.789062"/><stop stop-opacity="1" stop-color="rgb(40.963745%, 69.73114%, 98.217773%)" offset="0.792969"/><stop stop-opacity="1" stop-color="rgb(40.666199%, 69.58313%, 98.295593%)" offset="0.796875"/><stop stop-opacity="1" stop-color="rgb(40.367126%, 69.433594%, 98.371887%)" offset="0.800781"/><stop stop-opacity="1" stop-color="rgb(40.06958%, 69.284058%, 98.449707%)" offset="0.804688"/><stop stop-opacity="1" stop-color="rgb(39.772034%, 69.134521%, 98.527527%)" offset="0.808594"/><stop stop-opacity="1" stop-color="rgb(39.474487%, 68.986511%, 98.605347%)" offset="0.8125"/><stop stop-opacity="1" stop-color="rgb(39.175415%, 68.836975%, 98.681641%)" offset="0.816406"/><stop stop-opacity="1" stop-color="rgb(38.877869%, 68.688965%, 98.75946%)" offset="0.820312"/><stop stop-opacity="1" stop-color="rgb(38.578796%, 68.539429%, 98.835754%)" offset="0.824219"/><stop stop-opacity="1" stop-color="rgb(38.28125%, 68.389893%, 98.913574%)" offset="0.828125"/><stop stop-opacity="1" stop-color="rgb(37.983704%, 68.240356%, 98.991394%)" offset="0.832031"/><stop stop-opacity="1" stop-color="rgb(37.686157%, 68.092346%, 99.069214%)" offset="0.835937"/><stop stop-opacity="1" stop-color="rgb(37.387085%, 67.94281%, 99.145508%)" offset="0.839844"/><stop stop-opacity="1" stop-color="rgb(37.089539%, 67.7948%, 99.223328%)" offset="0.84375"/><stop stop-opacity="1" stop-color="rgb(36.791992%, 67.645264%, 99.299622%)" offset="0.847656"/><stop stop-opacity="1" stop-color="rgb(36.494446%, 67.495728%, 99.377441%)" offset="0.851562"/><stop stop-opacity="1" stop-color="rgb(36.195374%, 67.346191%, 99.455261%)" offset="0.855469"/><stop stop-opacity="1" stop-color="rgb(35.897827%, 67.198181%, 99.533081%)" offset="0.859375"/><stop stop-opacity="1" stop-color="rgb(35.598755%, 67.048645%, 99.609375%)" offset="0.863281"/><stop stop-opacity="1" stop-color="rgb(35.301208%, 66.900635%, 99.687195%)" offset="0.867188"/><stop stop-opacity="1" stop-color="rgb(35.003662%, 66.751099%, 99.763489%)" offset="0.871094"/><stop stop-opacity="1" stop-color="rgb(34.706116%, 66.603088%, 99.841309%)" offset="0.875"/><stop stop-opacity="1" stop-color="rgb(34.407043%, 66.453552%, 99.919128%)" offset="0.878906"/><stop stop-opacity="1" stop-color="rgb(34.109497%, 66.304016%, 99.996948%)" offset="0.882812"/><stop stop-opacity="1" stop-color="rgb(34.103394%, 66.300964%, 99.998474%)" offset="0.890625"/><stop stop-opacity="1" stop-color="rgb(34.098816%, 66.299438%, 100%)" offset="0.90625"/><stop stop-opacity="1" stop-color="rgb(34.098816%, 66.299438%, 100%)" offset="0.9375"/><stop stop-opacity="1" stop-color="rgb(34.098816%, 66.299438%, 100%)" offset="1"/></linearGradient><clipPath id="id6"><path d="M 62.292969 263.738281 L 345 263.738281 L 345 546.488281 L 62.292969 546.488281 Z M 62.292969 263.738281 " clip-rule="nonzero"/></clipPath></defs><g clip-path="url(#id1)"><g clip-path="url(#id2)"><g clip-path="url(#id3)"><g clip-path="url(#id4)"><path fill="url(#id5)" d="M 80.996094 138.878906 L -62.621094 527.535156 L 326.03125 671.152344 L 469.652344 282.5 Z M 80.996094 138.878906 " fill-rule="nonzero"/></g></g></g></g><g clip-path="url(#id6)"><path fill="#ffffff" d="M 165.613281 326.257812 L 202.894531 390.816406 L 203.589844 390.796875 C 211.371094 390.796875 217.699219 397.039062 217.820312 404.792969 L 250.585938 423.707031 C 254.429688 425.921875 255.75 430.878906 253.535156 434.71875 C 251.316406 438.554688 246.371094 439.882812 242.53125 437.667969 L 208.90625 418.25 C 207.265625 418.910156 205.46875 419.273438 203.589844 419.273438 C 195.722656 419.273438 189.347656 412.898438 189.347656 405.03125 C 189.347656 402.195312 190.179688 399.546875 191.613281 397.320312 L 154.34375 332.761719 C 152.550781 329.667969 153.625 325.664062 156.726562 323.875 C 159.832031 322.082031 163.824219 323.148438 165.613281 326.257812 Z M 208.589844 515.246094 C 208.589844 518.011719 206.34375 520.242188 203.589844 520.242188 C 200.828125 520.242188 198.585938 518.011719 198.585938 515.246094 L 198.585938 494.386719 C 198.585938 491.636719 200.828125 489.390625 203.589844 489.390625 C 206.34375 489.390625 208.589844 491.636719 208.589844 494.386719 Z M 198.585938 294.832031 C 198.585938 292.070312 200.828125 289.832031 203.589844 289.832031 C 206.34375 289.832031 208.589844 292.070312 208.589844 294.832031 L 208.589844 315.679688 C 208.589844 318.445312 206.34375 320.683594 203.589844 320.683594 C 200.828125 320.683594 198.585938 318.445312 198.585938 315.679688 Z M 93.382812 410.042969 C 90.617188 410.042969 88.382812 407.804688 88.382812 405.03125 C 88.382812 402.28125 90.617188 400.039062 93.382812 400.039062 L 114.234375 400.039062 C 116.988281 400.039062 119.234375 402.28125 119.234375 405.03125 C 119.234375 407.804688 116.988281 410.042969 114.234375 410.042969 Z M 313.792969 400.039062 C 316.550781 400.039062 318.796875 402.28125 318.796875 405.03125 C 318.796875 407.804688 316.550781 410.042969 313.792969 410.042969 L 292.945312 410.042969 C 290.179688 410.042969 287.941406 407.804688 287.941406 405.03125 C 287.941406 402.277344 290.179688 400.039062 292.945312 400.039062 Z M 203.589844 263.738281 C 242.597656 263.738281 277.933594 279.558594 303.496094 305.125 C 329.0625 330.691406 344.878906 366.027344 344.878906 405.03125 C 344.878906 444.058594 329.0625 479.382812 303.496094 504.945312 C 277.929688 530.523438 242.597656 546.332031 203.589844 546.332031 C 164.570312 546.332031 129.25 530.523438 103.675781 504.945312 C 78.109375 479.382812 62.292969 444.058594 62.292969 405.03125 C 62.292969 366.027344 78.109375 330.703125 103.675781 305.125 C 129.242188 279.558594 164.570312 263.738281 203.589844 263.738281 Z M 289.347656 319.277344 C 267.40625 297.332031 237.078125 283.753906 203.589844 283.753906 C 170.09375 283.753906 139.765625 297.332031 117.824219 319.277344 C 95.875 341.21875 82.300781 371.542969 82.300781 405.03125 C 82.300781 472.023438 136.601562 526.316406 203.589844 526.316406 C 237.078125 526.316406 267.40625 512.753906 289.347656 490.796875 C 311.300781 468.851562 324.871094 438.527344 324.871094 405.03125 C 324.871094 371.542969 311.300781 341.21875 289.347656 319.277344 Z M 289.347656 319.277344 " fill-opacity="1" fill-rule="nonzero"/></g><g fill="#ffffff" fill-opacity="1"><g transform="translate(449.901314, 449.525828)"><g><path d="M 88.445312 -61.777344 L 111.132812 -61.777344 L 107.160156 -58.300781 C 111.132812 -56.976562 115.441406 -55.152344 119.746094 -53.164062 L 88.445312 -52.667969 Z M 37.429688 -70.058594 L 37.429688 -80.328125 L 76.519531 -80.328125 L 76.519531 -70.058594 Z M 37.429688 -98.214844 L 76.519531 -98.214844 L 76.519531 -88.277344 L 37.429688 -88.277344 Z M 128.691406 -98.214844 L 128.691406 -88.277344 L 88.445312 -88.277344 L 88.445312 -98.214844 Z M 128.691406 -70.058594 L 88.445312 -70.058594 L 88.445312 -80.328125 L 128.691406 -80.328125 Z M 157.507812 -34.285156 L 118.089844 -34.285156 L 118.089844 -44.882812 L 134.488281 -45.382812 C 138.132812 -43.0625 141.445312 -40.742188 143.929688 -38.757812 L 151.214844 -45.710938 C 144.589844 -50.847656 132.832031 -57.304688 121.570312 -61.777344 L 140.78125 -61.777344 L 140.78125 -106.664062 L 88.445312 -106.664062 L 88.445312 -115.9375 L 150.882812 -115.9375 L 150.882812 -125.875 L 88.445312 -125.875 L 88.445312 -138.296875 L 76.519531 -138.296875 L 76.519531 -125.875 L 13.085938 -125.875 L 13.085938 -115.9375 L 76.519531 -115.9375 L 76.519531 -106.664062 L 25.835938 -106.664062 L 25.835938 -61.777344 L 76.519531 -61.777344 L 76.519531 -52.667969 C 52.835938 -52.335938 31.136719 -52.171875 14.742188 -52.171875 L 15.238281 -42.566406 C 39.085938 -42.898438 72.210938 -43.558594 106.164062 -44.554688 L 106.164062 -34.285156 L 8.28125 -34.285156 L 8.28125 -24.179688 L 42.566406 -24.179688 L 34.449219 -17.226562 C 44.386719 -11.097656 55.980469 -2.152344 61.777344 4.304688 L 70.554688 -3.808594 C 64.757812 -9.9375 53.164062 -18.550781 43.394531 -24.179688 L 106.164062 -24.179688 L 106.164062 -0.828125 C 106.164062 1.324219 105.335938 1.988281 102.851562 2.152344 C 100.203125 2.320312 90.929688 2.320312 80.824219 1.988281 C 82.480469 4.96875 84.304688 9.441406 84.800781 12.585938 C 98.050781 12.585938 106.332031 12.585938 111.464844 10.765625 C 116.765625 9.109375 118.089844 5.796875 118.089844 -0.496094 L 118.089844 -24.179688 L 157.507812 -24.179688 Z M 157.507812 -34.285156 "/></g></g></g><g fill="#ffffff" fill-opacity="1"><g transform="translate(615.51706, 449.525828)"><g><path d="M 25.339844 -115.605469 L 140.78125 -115.605469 L 140.78125 -102.355469 L 152.707031 -102.355469 L 152.707031 -126.039062 L 92.085938 -126.039062 C 89.769531 -130.179688 86.289062 -135.148438 83.804688 -138.792969 L 71.550781 -135.8125 C 73.371094 -132.832031 75.523438 -129.519531 77.511719 -126.039062 L 13.746094 -126.039062 L 13.746094 -102.355469 L 25.339844 -102.355469 Z M 105.667969 -86.789062 C 100.203125 -80.328125 93.082031 -75.195312 84.46875 -70.886719 C 73.867188 -73.039062 63.101562 -75.027344 52.171875 -76.683594 C 55.320312 -79.832031 58.796875 -83.144531 62.273438 -86.789062 Z M 153.039062 -53.664062 C 139.289062 -58.300781 121.070312 -63.101562 100.867188 -67.574219 C 108.816406 -72.710938 115.273438 -79.003906 120.410156 -86.789062 L 155.191406 -86.789062 L 155.191406 -96.890625 L 125.875 -96.890625 C 127.199219 -99.707031 128.195312 -102.355469 129.1875 -105.503906 L 117.261719 -108.320312 C 115.9375 -104.179688 114.28125 -100.367188 112.292969 -96.890625 L 71.550781 -96.890625 C 75.359375 -101.363281 79.003906 -106 81.984375 -110.304688 L 70.058594 -113.949219 C 66.582031 -108.648438 62.109375 -102.6875 57.140625 -96.890625 L 10.929688 -96.890625 L 10.929688 -86.789062 L 48.195312 -86.789062 C 42.566406 -80.824219 36.933594 -75.359375 31.800781 -70.722656 C 43.890625 -68.898438 55.484375 -66.914062 66.746094 -64.757812 C 51.839844 -60.949219 33.457031 -58.796875 10.765625 -57.804688 C 12.585938 -54.820312 14.242188 -50.847656 15.402344 -47.203125 C 45.878906 -49.191406 69.398438 -53 87.285156 -60.617188 C 108.980469 -55.648438 127.695312 -50.679688 141.113281 -45.546875 Z M 50.679688 -24.179688 C 41.902344 -14.742188 26.167969 -6.128906 11.261719 -0.664062 C 14.242188 1.160156 19.210938 5.464844 21.367188 7.785156 C 35.941406 1.324219 52.667969 -8.945312 62.773438 -20.207031 Z M 101.527344 -18.054688 C 116.601562 -10.929688 135.480469 0.496094 144.757812 8.613281 L 153.699219 -0.332031 C 143.929688 -8.28125 124.714844 -19.210938 109.808594 -25.835938 Z M 88.445312 -38.257812 L 88.445312 -52.007812 L 76.351562 -52.007812 L 76.351562 -38.257812 L 9.273438 -38.257812 L 9.273438 -27.824219 L 76.351562 -27.824219 L 76.351562 12.585938 L 88.445312 12.585938 L 88.445312 -27.824219 L 156.847656 -27.824219 L 156.847656 -38.257812 Z M 88.445312 -38.257812 "/></g></g></g><g fill="#ffffff" fill-opacity="1"><g transform="translate(781.132807, 449.525828)"><g><path d="M 47.699219 -116.765625 L 41.40625 -111.960938 C 46.707031 -106.828125 53.496094 -99.871094 56.808594 -95.566406 L 64.925781 -102.355469 C 61.777344 -106.164062 55.648438 -112.292969 50.515625 -116.765625 L 81.820312 -116.765625 L 81.820312 -126.703125 L 39.085938 -126.703125 C 40.910156 -130.015625 42.398438 -133.328125 43.890625 -136.640625 L 32.960938 -139.621094 C 27.328125 -125.875 17.886719 -112.625 7.617188 -103.515625 C 10.269531 -101.527344 14.410156 -97.386719 16.230469 -95.398438 C 22.195312 -101.03125 28.15625 -108.484375 33.457031 -116.765625 Z M 127.367188 -18.382812 L 127.367188 -2.484375 L 47.699219 -2.484375 L 47.699219 -18.382812 Z M 118.753906 -62.9375 L 118.753906 -48.859375 L 47.699219 -48.859375 L 47.699219 -62.9375 Z M 47.699219 -39.417969 L 130.84375 -39.417969 L 130.84375 -72.378906 L 35.445312 -72.378906 L 35.445312 12.753906 L 47.699219 12.753906 L 47.699219 7.121094 L 127.367188 7.121094 L 127.367188 12.421875 L 139.457031 12.421875 L 139.457031 -27.992188 L 47.699219 -27.992188 Z M 73.039062 -102.6875 C 74.863281 -99.539062 76.519531 -95.730469 78.007812 -92.253906 L 17.226562 -92.253906 L 17.226562 -65.257812 L 29.148438 -65.257812 L 29.148438 -82.480469 L 138.628906 -82.480469 L 138.628906 -65.257812 L 150.882812 -65.257812 L 150.882812 -92.253906 L 90.597656 -92.253906 C 89.105469 -96.394531 86.289062 -101.195312 83.972656 -105.007812 Z M 107.160156 -126.539062 C 108.980469 -129.851562 110.472656 -133.328125 111.796875 -136.804688 L 100.535156 -139.621094 C 96.394531 -128.359375 88.941406 -117.59375 79.996094 -110.472656 C 82.8125 -108.816406 87.285156 -105.007812 89.273438 -103.183594 C 93.578125 -106.828125 97.554688 -111.632812 101.363281 -116.765625 L 120.242188 -116.765625 L 113.121094 -110.96875 C 119.25 -105.835938 126.867188 -98.710938 130.679688 -94.074219 L 138.960938 -101.363281 C 135.148438 -105.667969 127.863281 -111.960938 121.898438 -116.765625 L 157.507812 -116.765625 L 157.507812 -126.539062 Z M 107.160156 -126.539062 "/></g></g></g><g fill="#ffffff" fill-opacity="1"><g transform="translate(946.748553, 449.525828)"><g><path d="M 58.464844 -33.289062 L 40.414062 -27.328125 L 40.414062 -68.238281 L 57.140625 -68.238281 L 57.140625 -79.832031 L 40.414062 -79.832031 L 40.414062 -115.773438 L 59.460938 -115.773438 L 59.460938 -127.367188 L 8.117188 -127.367188 L 8.117188 -115.773438 L 28.652344 -115.773438 L 28.652344 -79.832031 L 9.773438 -79.832031 L 9.773438 -68.238281 L 28.652344 -68.238281 L 28.652344 -23.683594 C 20.207031 -20.867188 12.585938 -18.550781 6.460938 -16.726562 L 9.273438 -4.304688 C 24.015625 -9.109375 42.898438 -15.570312 60.617188 -21.53125 Z M 78.835938 -89.273438 L 104.011719 -89.273438 L 104.011719 -68.070312 L 78.835938 -68.070312 Z M 78.835938 -120.242188 L 104.011719 -120.242188 L 104.011719 -99.375 L 78.835938 -99.375 Z M 139.953125 -99.375 L 114.613281 -99.375 L 114.613281 -120.242188 L 139.953125 -120.242188 Z M 139.953125 -68.070312 L 114.613281 -68.070312 L 114.613281 -89.273438 L 139.953125 -89.273438 Z M 115.605469 -3.976562 L 115.605469 -26.664062 L 154.195312 -26.664062 L 154.195312 -37.929688 L 115.605469 -37.929688 L 115.605469 -57.304688 L 151.710938 -57.304688 L 151.710938 -131.007812 L 67.574219 -131.007812 L 67.574219 -57.304688 L 103.183594 -57.304688 L 103.183594 -37.929688 L 65.585938 -37.929688 L 65.585938 -26.664062 L 103.183594 -26.664062 L 103.183594 -3.976562 L 52.835938 -3.976562 L 52.835938 7.289062 L 159.496094 7.289062 L 159.496094 -3.976562 Z M 115.605469 -3.976562 "/></g></g></g><g fill="#ffffff" fill-opacity="1"><g transform="translate(1112.3643, 449.525828)"><g><path d="M 47.867188 -33.457031 C 39.417969 -21.863281 25.507812 -9.9375 12.585938 -1.988281 C 15.734375 -0.164062 20.867188 3.808594 23.1875 5.960938 C 35.609375 -2.648438 50.183594 -16.066406 60.121094 -29.148438 Z M 134.320312 -45.878906 C 137.632812 -41.570312 140.78125 -37.597656 143.101562 -34.285156 L 153.535156 -40.742188 C 146.578125 -50.515625 132.335938 -65.753906 119.746094 -77.015625 L 109.808594 -71.882812 C 114.777344 -67.078125 120.242188 -61.445312 125.542969 -55.648438 L 54.988281 -51.011719 C 78.007812 -61.445312 101.363281 -74.367188 123.886719 -90.265625 L 114.28125 -98.382812 C 108.320312 -93.910156 102.023438 -89.4375 95.398438 -85.460938 L 54.820312 -83.308594 C 66.582031 -89.601562 78.671875 -97.554688 89.769531 -106.164062 L 79.335938 -112.789062 C 97.222656 -117.59375 113.785156 -122.726562 127.035156 -128.691406 L 117.925781 -138.296875 C 94.40625 -127.199219 52.007812 -116.929688 14.90625 -110.140625 C 16.398438 -107.324219 17.886719 -103.019531 18.550781 -99.871094 C 38.257812 -103.351562 59.128906 -107.65625 78.835938 -112.789062 C 64.925781 -100.535156 46.539062 -89.601562 40.578125 -86.789062 C 35.113281 -83.804688 30.972656 -81.984375 27.164062 -81.652344 C 28.652344 -78.507812 30.308594 -72.378906 30.972656 -70.058594 C 34.449219 -71.21875 40.082031 -72.046875 77.347656 -74.199219 C 61.28125 -64.925781 47.203125 -57.804688 40.910156 -55.152344 C 30.972656 -50.515625 23.683594 -47.867188 18.21875 -47.203125 C 19.542969 -43.890625 21.367188 -38.09375 21.863281 -35.445312 C 26.5 -37.265625 33.125 -38.257812 78.175781 -41.570312 L 78.175781 -2.484375 C 78.175781 -0.496094 77.679688 0 74.863281 0.164062 C 72.210938 0.496094 63.269531 0.496094 53.332031 0 C 55.320312 3.3125 57.472656 8.613281 57.96875 12.089844 C 70.058594 12.089844 78.507812 11.925781 83.640625 9.9375 C 89.105469 8.117188 90.597656 4.636719 90.597656 -2.320312 L 90.597656 -42.566406 Z M 105.503906 -28.652344 C 118.753906 -18.550781 134.820312 -4.140625 142.769531 4.636719 L 153.039062 -2.648438 C 144.589844 -11.429688 128.195312 -25.339844 115.109375 -34.945312 Z M 105.503906 -28.652344 "/></g></g></g><g fill="#ffffff" fill-opacity="1"><g transform="translate(1277.980046, 449.525828)"><g><path d="M 67.078125 -44.222656 C 65.257812 -52.667969 60.453125 -66.414062 55.320312 -77.015625 L 46.375 -73.703125 C 48.695312 -68.898438 50.679688 -63.433594 52.667969 -57.96875 L 25.671875 -54.160156 C 39.417969 -69.5625 52.667969 -88.941406 63.433594 -108.484375 L 53 -114.613281 C 49.023438 -106.664062 44.386719 -98.546875 39.75 -91.09375 L 22.359375 -89.4375 C 31.800781 -102.191406 41.40625 -118.421875 48.859375 -134.320312 L 37.597656 -139.125 C 30.640625 -121.238281 18.882812 -102.191406 15.238281 -97.386719 C 11.757812 -92.417969 8.777344 -88.941406 6.128906 -88.277344 C 7.289062 -85.296875 9.273438 -79.5 9.9375 -77.015625 C 12.089844 -78.175781 15.570312 -78.835938 33.125 -80.824219 C 27.164062 -72.210938 22.027344 -65.257812 19.378906 -62.441406 C 14.410156 -56.3125 10.601562 -52.171875 7.121094 -51.34375 C 8.445312 -48.195312 10.433594 -42.398438 10.929688 -39.914062 C 14.078125 -41.738281 19.046875 -42.898438 55.484375 -49.023438 C 56.3125 -45.878906 56.976562 -42.898438 57.472656 -40.578125 Z M 13.914062 -32.792969 C 12.257812 -19.542969 9.773438 -4.96875 5.960938 5.300781 C 8.445312 6.128906 13.414062 7.785156 15.402344 8.945312 C 18.882812 -1.324219 22.027344 -16.894531 23.683594 -30.972656 Z M 31.46875 -31.632812 C 33.457031 -20.539062 35.277344 -5.960938 35.609375 3.476562 L 45.214844 1.160156 C 44.71875 -8.28125 42.730469 -22.523438 40.742188 -33.621094 Z M 67.574219 -7.949219 C 65.917969 -16.066406 62.109375 -28.15625 58.300781 -37.761719 L 49.6875 -34.78125 C 53.164062 -25.507812 56.976562 -12.917969 58.464844 -4.96875 Z M 131.835938 -1.160156 C 128.195312 -1.160156 127.695312 -1.988281 127.695312 -6.292969 L 127.695312 -65.421875 L 140.285156 -66.914062 C 142.769531 -62.273438 144.757812 -57.804688 146.246094 -54.324219 L 157.179688 -59.625 C 152.871094 -70.058594 142.4375 -86.953125 133.992188 -99.375 L 123.886719 -94.902344 C 127.53125 -89.4375 131.339844 -82.976562 134.984375 -76.683594 L 86.289062 -71.882812 C 93.578125 -81.820312 100.699219 -93.578125 107.492188 -106 L 156.019531 -106 L 156.019531 -117.59375 L 113.453125 -117.59375 C 116.269531 -123.058594 119.085938 -128.855469 121.570312 -134.488281 L 108.320312 -138.460938 C 105.667969 -131.507812 102.523438 -124.382812 99.210938 -117.59375 L 69.066406 -117.59375 L 69.066406 -106 L 93.578125 -106 C 87.449219 -94.570312 81.984375 -85.460938 79.335938 -81.820312 C 74.863281 -75.027344 71.21875 -70.554688 67.90625 -69.726562 C 69.5625 -66.25 71.382812 -60.121094 72.210938 -57.472656 C 74.53125 -58.464844 77.511719 -59.292969 88.445312 -60.785156 C 87.449219 -26.664062 83.476562 -7.289062 57.472656 3.808594 C 60.289062 5.960938 63.601562 10.269531 65.089844 13.414062 C 94.074219 -0.164062 99.042969 -23.1875 100.367188 -62.273438 L 115.9375 -64.097656 L 115.9375 -6.128906 C 115.9375 6.128906 118.753906 9.773438 130.347656 9.773438 L 144.589844 9.773438 C 154.527344 9.773438 157.507812 3.976562 158.667969 -18.21875 C 155.191406 -19.210938 150.554688 -20.867188 147.902344 -23.023438 C 147.570312 -4.304688 146.742188 -1.160156 143.265625 -1.160156 Z M 131.835938 -1.160156 "/></g></g></g></svg>